# xmcd CD database file
#
# Track frame offsets:
#	150
#	12830
#	28445
#	40975
#	56380
#	72150
#	86930
#	111265
#	132275
#	145695
#	167857
#	191812
#
# Disc length: 2721 seconds
#
# Revision: 0
# Processed by: cddbd v1.4PL0 Copyright (c) Steve Scherf et al.
# Submitted via: CDex 1.50
#
DISCID=ae0a9f0c
DTITLE=Sonny Criss - Memorial Album
DYEAR=1986
DGENRE=Jazz
TTITLE0=Blue Lou
TTITLE1=The Creep
TTITLE2=Out of Nowhere
TTITLE3=Semi-Quiet
TTITLE4=Blue'n' Boogie
TTITLE5=I Can't Give You Anything But Love
TTITLE6=Strike up the Band
TTITLE7=Saturday Morning
TTITLE8=When Sunny Gets Blue
TTITLE9=The Masquerade is Over
TTITLE10=What's New ?
TTITLE11=Ursula
EXTD=YEAR: 1986
EXTT0=
EXTT1=
EXTT2=
EXTT3=
EXTT4=
EXTT5=
EXTT6=
EXTT7=
EXTT8=
EXTT9=
EXTT10=
EXTT11=
PLAYORDER=
